<svg width="229" height="83" viewBox="0 0 229 83" fill="none" xmlns="http://www.w3.org/2000/svg">
<g clip-path="url(#clip0_50_478)">
<path d="M182.384 59.32C182.291 59.0344 182.22 58.7386 182.148 58.4428C182.148 58.4428 182.148 58.4326 182.148 58.4224C178.935 57.8818 176.428 55.5869 176.428 52.017C176.428 43.6226 182.578 35.9524 187.438 29.4959C197.722 28.5269 228.01 20.6935 228.01 7.53587C228.01 4.55754 225.176 2.94599 222.423 2.94599C209.305 2.94599 189.219 18.929 181.289 28.7615C174.494 28.2822 165.254 26.0178 165.254 17.5418C165.254 5.11853 181.78 1.56902 191.49 1.56902C194.734 1.56902 197.886 2.03821 200.966 2.60939L201.129 1.87501C197.323 1.07943 193.517 0.589844 189.628 0.589844C179.907 0.589844 163.392 4.22095 163.392 16.6544C163.392 26.0178 172.939 28.6799 180.634 29.5775C177.155 34.8202 174.075 40.634 174.075 47.1721C174.075 53.0879 176.469 58.4224 182.404 59.371V59.3506C182.404 59.3506 182.394 59.3302 182.394 59.32H182.384ZM222.577 3.73137C224.92 3.73137 227.192 4.87374 227.192 7.52567C227.192 18.827 197.231 27.864 188.083 28.5881C195.461 19.9592 210.431 3.73137 222.577 3.73137Z" fill="white"/>
<path d="M182.148 58.4434C182.23 58.7392 182.292 59.0349 182.384 59.3205L182.159 58.4434C182.159 58.4434 182.159 58.4434 182.148 58.4434Z" fill="#BBBBBB"/>
<path d="M196.198 72.0191C196.095 71.9987 195.983 71.9681 195.88 71.9375C195.983 71.9681 196.095 71.9885 196.198 72.0191Z" fill="#BBBBBB"/>
<path d="M211.485 58.4628C211.433 57.3613 210.973 56.2393 209.847 55.8007C208.875 56.1271 207.78 56.4127 206.737 56.4637C206.348 56.4841 205.846 56.3515 205.458 56.2495L204.823 55.6783L205.345 55.0459C206.808 54.6379 208.251 54.8317 209.704 55.0867C213.552 52.7816 216.396 48.2733 216.151 43.7854C216.089 42.7348 215.711 41.7658 215.117 40.9805C204.383 49.8134 201.457 62.9711 191.767 70.3761C193.076 71.0493 194.447 71.5593 195.88 71.9163C195.982 71.9469 196.095 71.9673 196.197 71.9979C196.637 72.0999 197.087 72.2019 197.538 72.2733C197.527 72.1713 197.497 72.0693 197.497 71.9571C197.19 66.4186 204.557 60.7374 209.397 59.544L209.428 60.0846C204.864 61.4412 197.763 66.8164 198.049 72.0897C198.049 72.1713 198.07 72.2529 198.08 72.3345C199.308 72.5079 200.546 72.5793 201.805 72.5385C202.06 72.5385 202.316 72.5181 202.572 72.4977C202.879 72.4773 203.186 72.4569 203.493 72.4263C207.617 69.2644 211.679 61.9715 211.485 58.4118V58.4628Z" fill="white"/>
<path d="M202.572 72.5391C202.316 72.5595 202.06 72.5697 201.805 72.5799C202.06 72.5799 202.316 72.5595 202.572 72.5391Z" fill="#BBBBBB"/>
<path d="M186.374 66.2971C185.904 65.7769 185.474 65.2363 185.064 64.6855C185.464 65.2465 185.904 65.7769 186.374 66.2971Z" fill="#BBBBBB"/>
<path d="M214.77 40.4613C211.229 37.2892 206.553 36.5038 201.979 36.7486C197.272 37.0036 189.424 39.2883 183.878 43.1337C182.762 45.3776 182.046 47.7337 181.698 50.1103C184.584 46.2752 189.854 44.174 194.479 43.9292C197.18 43.7864 200.761 44.8472 200.935 48.0295C201.293 54.6084 191.174 59.2901 185.679 59.5858C184.563 59.647 183.448 59.5654 182.394 59.3207V59.341C182.803 60.5956 183.325 61.8196 183.99 62.9722C184.041 63.0538 184.093 63.1354 184.144 63.217C184.43 63.7167 184.737 64.2063 185.085 64.6755C185.484 65.2263 185.924 65.7669 186.395 66.2871C187.347 67.3377 188.401 68.2556 189.516 69.041C198.807 60.9322 205.243 47.2544 214.78 40.4511L214.77 40.4613Z" fill="white"/>
<path d="M184.133 63.2272C184.082 63.1456 184.021 63.064 183.98 62.9824C184.031 63.064 184.082 63.1456 184.133 63.2272Z" fill="#BBBBBB"/>
<path d="M182.158 58.4432C183.09 58.6574 184.072 58.7288 185.064 58.6676C189.904 58.4126 200.649 53.7615 200.321 47.8865C200.178 45.1428 196.873 44.3778 194.611 44.5104C189.659 44.7756 184.891 47.5091 181.565 51.0994C181.319 53.5779 181.524 56.0463 182.148 58.4126C182.148 58.4126 182.148 58.4126 182.158 58.4126V58.433V58.4432Z" fill="white"/>
<path d="M182.149 58.4219C182.149 58.4219 182.149 58.4219 182.138 58.4219C182.138 58.4219 182.138 58.4325 182.138 58.4431C182.138 58.4431 182.138 58.4431 182.149 58.4431V58.4219Z" fill="#BBBBBB"/>
<path d="M189.506 35.7289C188.984 36.1981 188.503 36.6775 188.042 37.1773C187.879 37.3507 187.725 37.5241 187.572 37.6975C187.275 38.0239 186.999 38.3707 186.722 38.7073C186.559 38.9214 186.385 39.1254 186.221 39.3396C185.863 39.819 185.525 40.2984 185.208 40.788C190.161 37.8709 196.331 36.2695 200.782 36.0349C205.959 35.7493 211.301 36.5551 215.363 40.1352C217.225 38.9419 219.231 38.2177 221.482 37.9933L221.513 38.4727C219.425 38.6971 217.532 39.411 215.772 40.5534C217.246 42.1854 218.453 44.2049 218.576 46.4489C218.842 51.3855 214.688 54.1395 210.462 55.5266C212.57 56.7404 213.838 58.811 213.971 61.2283C214.176 65.0124 211.403 68.9495 207.873 71.5504C207.914 71.5402 207.945 71.53 207.985 71.5096C208.692 71.2954 209.387 71.0405 210.073 70.7549C210.359 70.6325 210.636 70.5101 210.922 70.3877C211.28 70.2245 211.638 70.0511 211.997 69.8675C212.385 69.6635 212.764 69.4595 213.153 69.2351C213.347 69.1229 213.531 69.0107 213.716 68.8985C214.238 68.5721 214.749 68.2253 215.251 67.8581C215.373 67.7663 215.496 67.6745 215.619 67.5827C216.161 67.1645 216.704 66.7362 217.215 66.267C226.598 57.8216 227.99 44.1437 220.357 35.7085C212.703 27.2631 198.909 27.2733 189.536 35.7289H189.506Z" fill="white"/>
<path d="M188.042 37.1769C188.513 36.6771 188.994 36.1977 189.505 35.7285C188.983 36.1977 188.502 36.6771 188.042 37.1769Z" fill="#BBBBBB"/>
<path d="M213.132 69.2441C212.754 69.4685 212.365 69.6827 211.976 69.8765C212.365 69.6725 212.743 69.4583 213.132 69.2441Z" fill="#BBBBBB"/>
<path d="M217.194 66.2754C216.673 66.7446 216.14 67.173 215.598 67.5912C216.14 67.173 216.683 66.7446 217.194 66.2754Z" fill="#BBBBBB"/>
<path d="M210.902 70.4062C210.625 70.5388 210.339 70.6612 210.052 70.7734C210.339 70.651 210.615 70.5286 210.902 70.4062Z" fill="#BBBBBB"/>
<path d="M185.198 40.798C185.515 40.3084 185.853 39.8188 186.211 39.3496C185.853 39.829 185.515 40.3084 185.198 40.798Z" fill="#BBBBBB"/>
<path d="M186.712 38.7168C186.988 38.37 187.264 38.0334 187.561 37.707C187.264 38.0334 186.978 38.37 186.712 38.7168Z" fill="#BBBBBB"/>
<path d="M207.862 71.5701C207.862 71.5701 207.934 71.5497 207.975 71.5293C207.934 71.5395 207.903 71.5497 207.862 71.5701Z" fill="#BBBBBB"/>
<path d="M15.0417 42.2253C14.6631 39.4816 12.2892 38.3596 9.72085 38.3596C3.9395 38.3596 2.18975 43.5921 2.18975 48.2024C2.18975 52.8126 3.9395 58.0451 9.72085 58.0451C12.2176 58.0451 14.7245 56.8008 15.2873 53.9958H17.4771C16.8222 57.7697 13.3534 59.9117 9.72085 59.9117C2.87533 59.9117 0 54.4242 0 48.1922C0 41.9601 2.90602 36.4727 9.72085 36.4727C13.4045 36.4727 16.9143 38.1556 17.2213 42.2049H15.0315L15.0417 42.2253Z" fill="white"/>
<path d="M20.8127 59.4521H18.9401V47.3348C18.9708 46.121 18.8378 44.8664 18.7866 43.8158H20.7308L20.8229 46.121H20.8843C21.4471 44.5298 22.8489 43.4079 24.4145 43.3467C25.0387 43.3161 25.6628 43.3467 26.2973 43.3773V45.1826C25.9187 45.152 25.5094 45.0602 25.141 45.0602C22.3578 45.0602 20.8945 47.0594 20.8229 50.0479V59.4521H20.8127Z" fill="white"/>
<path d="M27.9347 52.0684C27.9961 55.4038 29.531 58.2087 33.3682 58.2087C35.5886 58.2087 37.4305 56.6175 37.9012 54.4654H39.876C38.9039 58.2087 36.5607 59.9222 32.7849 59.9222C28.0984 59.9222 25.9087 55.9035 25.9087 51.6299C25.9087 47.3562 28.2519 43.3477 32.9077 43.3477C38.157 43.3477 40.0704 47.1828 40.0704 52.0684H27.945H27.9347ZM38.0342 50.3549C37.8091 47.3358 36.1923 45.051 32.9384 45.051C29.8687 45.051 28.2519 47.6112 27.9961 50.3549H38.0342Z" fill="white"/>
<path d="M51.2134 48.4271C51.0292 45.8772 49.7092 45.0612 47.4888 45.0612C45.5241 45.0612 43.8972 45.6528 43.6414 47.7743H41.646C42.1167 44.5614 44.5213 43.3477 47.5195 43.3477C50.9883 43.3477 53.1473 44.9388 53.0859 48.5189V55.9443C53.0552 57.1581 53.178 58.4025 53.2394 59.4633H51.3055L51.2441 57.1581H51.1827L51.0906 57.3723C50.405 58.6779 48.3074 59.9324 46.179 59.9324C43.2628 59.9324 40.9604 58.1577 40.9604 55.108C40.9604 52.9864 42.2395 51.3647 44.1223 50.5895C46.2199 49.6817 48.9315 49.9979 51.2134 49.8755V48.4373V48.4271ZM46.5269 58.2087C50.6199 58.2087 51.4078 54.8428 51.2134 51.5687C48.5529 51.6605 42.9865 51.1607 42.9865 55.0876C42.9865 57.2091 44.6134 58.1985 46.5167 58.1985L46.5269 58.2087Z" fill="white"/>
<path d="M56.8006 45.5309H53.6694V43.8173H56.8006V40.482L58.6731 39.666V43.8173H62.234V45.5309H58.6731V55.9958C58.6424 57.4238 59.3894 58.2092 60.8322 58.2092C61.395 58.2092 61.9577 58.1786 62.4591 58.0256V59.6371C61.8656 59.7901 61.1801 59.9227 60.5559 59.9227C56.5857 59.9227 56.8006 57.4034 56.8006 55.2818V45.5309Z" fill="white"/>
<path d="M66.6746 39.2986H64.4849V36.9629H66.6746V39.2986ZM66.5109 43.8171V59.4533H64.6383V43.8171H66.5109Z" fill="white"/>
<path d="M70.2969 43.8164L75.7099 56.8721L80.9285 43.8164H82.9852L76.7639 59.4526H74.6355L68.23 43.8164H70.2969Z" fill="white"/>
<path d="M84.5202 52.0684C84.5816 55.4038 86.1164 58.2087 89.9536 58.2087C92.1741 58.2087 94.0159 56.6175 94.4866 54.4654H96.4615C95.4996 58.2087 93.1461 59.9222 89.3704 59.9222C84.6839 59.9222 82.4941 55.9035 82.4941 51.6299C82.4941 47.3562 84.8374 43.3477 89.4931 43.3477C94.7424 43.3477 96.6559 47.1828 96.6559 52.0684H84.5304H84.5202ZM94.6196 50.3549C94.4047 47.3358 92.7778 45.051 89.5238 45.051C86.4541 45.051 84.8374 47.6112 84.5816 50.3549H94.6196Z" fill="white"/>
<path d="M99.1631 36.9727H107.605C108.915 36.9727 111.452 36.9727 113.171 38.0334C115.228 39.339 115.699 41.5217 115.699 42.8375C115.699 43.6739 115.545 45.1427 114.389 46.2034C114.225 46.387 113.141 47.3866 111.821 47.7334V47.7946C115.259 48.4168 116.599 50.9055 116.599 53.2821C116.599 55.934 115.034 57.7087 113.284 58.5757C111.534 59.4733 108.464 59.4733 107.595 59.4733H99.1528V36.9829L99.1631 36.9727ZM103.788 46.132H107.165C108.536 46.132 111.043 46.132 111.043 43.2353C111.043 40.3386 108.659 40.4304 107.073 40.4304H103.788V46.132ZM103.788 55.8524H107.073C109.293 55.8524 111.79 55.8524 111.79 52.8231C111.79 49.6101 108.884 49.6101 106.571 49.6101H103.788V55.8524Z" fill="white"/>
<path d="M128.131 59.4722C127.978 58.5032 127.978 57.7892 127.978 57.3302C126.228 59.8495 124.13 59.8495 123.25 59.8495C120.968 59.8495 119.935 59.1968 119.311 58.6052C118.369 57.677 117.939 56.3918 117.939 55.1475C117.939 53.9031 118.369 51.5979 121.285 50.2618C123.219 49.3846 126.003 49.3846 127.538 49.3846C127.538 48.3544 127.507 47.8546 127.323 47.3039C126.913 46.1513 125.696 45.9881 125.256 45.9881C124.591 45.9881 123.905 46.2737 123.506 46.8653C123.158 47.3957 123.158 47.8954 123.158 48.2728H118.625C118.656 47.4365 118.748 45.7535 120.405 44.5601C121.838 43.53 123.69 43.2852 125.184 43.2852C126.494 43.2852 129.246 43.4993 130.812 45.3149C131.876 46.5899 131.907 48.4564 131.907 49.1806L131.937 55.5045C131.937 56.8406 132.03 58.187 132.316 59.4926H128.131V59.4722ZM122.442 54.6069C122.442 55.6676 123.158 56.8508 124.693 56.8508C125.532 56.8508 126.228 56.4428 126.658 55.9532C127.466 54.9537 127.538 53.7399 127.538 52.0569C124.57 51.8121 122.442 52.7403 122.442 54.6069Z" fill="white"/>
<path d="M134.22 46.5404C134.22 46.4792 134.22 44.7656 134.127 43.6743H138.568L138.691 46.0406C139.131 45.3266 140.379 43.2969 143.818 43.2969C146.918 43.2969 148.228 45.1634 148.637 46.2548C148.985 47.2238 149.077 48.0296 149.077 50.9569V59.4635H144.35V49.6819C144.35 49.0291 144.35 48.4681 144.094 47.9684C143.756 47.285 143.03 46.622 141.843 46.622C140.84 46.622 139.939 47.0912 139.438 47.8358C139.162 48.2438 138.875 49.0189 138.875 50.2429V59.4635H134.22V46.5302V46.5404Z" fill="white"/>
<path d="M151.43 36.9418H156.025V50.2117L160.803 43.6329H166.022L160.609 50.4871L166.359 59.4527H160.895L156.014 50.8849V59.4527H151.42V36.9316L151.43 36.9418Z" fill="white"/>
</g>
<defs>
<clipPath id="clip0_50_478">
<rect width="229" height="82" fill="white" transform="translate(0 0.589844)"/>
</clipPath>
</defs>
</svg>
