<svg width="223" height="71" viewBox="0 0 223 71" fill="none" xmlns="http://www.w3.org/2000/svg">
<g clip-path="url(#clip0_32_528)">
<path d="M178.24 57.58C178.15 57.3 178.08 57.01 178.01 56.72C178.01 56.72 178.01 56.71 178.01 56.7C174.87 56.17 172.42 53.92 172.42 50.42C172.42 42.19 178.43 34.67 183.18 28.34C193.23 27.39 222.83 19.71 222.83 6.81C222.83 3.89 220.06 2.31 217.37 2.31C204.55 2.31 184.92 17.98 177.17 27.62C170.53 27.15 161.5 24.93 161.5 16.62C161.5 4.44 177.65 0.96 187.14 0.96C190.31 0.96 193.39 1.42 196.4 1.98L196.56 1.26C192.84 0.48 189.12 0 185.32 0C175.82 0 159.68 3.56 159.68 15.75C159.68 24.93 169.01 27.54 176.53 28.42C173.13 33.56 170.12 39.26 170.12 45.67C170.12 51.47 172.46 56.7 178.26 57.63V57.61C178.26 57.61 178.25 57.59 178.25 57.58H178.24ZM217.52 3.08C219.81 3.08 222.03 4.2 222.03 6.8C222.03 17.88 192.75 26.74 183.81 27.45C191.02 18.99 205.65 3.08 217.52 3.08Z" fill="#BBBBBB"/>
<path d="M178.01 56.7207C178.09 57.0107 178.15 57.3007 178.24 57.5807L178.02 56.7207C178.02 56.7207 178.02 56.7207 178.01 56.7207Z" fill="#BBBBBB"/>
<path d="M191.74 70.0292C191.64 70.0092 191.53 69.9792 191.43 69.9492C191.53 69.9792 191.64 69.9992 191.74 70.0292Z" fill="#BBBBBB"/>
<path d="M206.68 56.7396C206.63 55.6596 206.18 54.5596 205.08 54.1296C204.13 54.4496 203.06 54.7296 202.04 54.7796C201.66 54.7996 201.17 54.6696 200.79 54.5696L200.17 54.0096L200.68 53.3896C202.11 52.9896 203.52 53.1796 204.94 53.4296C208.7 51.1696 211.48 46.7496 211.24 42.3496C211.18 41.3196 210.81 40.3696 210.23 39.5996C199.74 48.2596 196.88 61.1596 187.41 68.4196C188.69 69.0796 190.03 69.5796 191.43 69.9296C191.53 69.9596 191.64 69.9796 191.74 70.0096C192.17 70.1096 192.61 70.2096 193.05 70.2796C193.04 70.1796 193.01 70.0796 193.01 69.9696C192.71 64.5396 199.91 58.9696 204.64 57.7996L204.67 58.3296C200.21 59.6596 193.27 64.9296 193.55 70.0996C193.55 70.1796 193.57 70.2596 193.58 70.3396C194.78 70.5096 195.99 70.5796 197.22 70.5396C197.47 70.5396 197.72 70.5196 197.97 70.4996C198.27 70.4796 198.57 70.4596 198.87 70.4296C202.9 67.3296 206.87 60.1796 206.68 56.6896V56.7396Z" fill="#BBBBBB"/>
<path d="M197.97 70.5391C197.72 70.5591 197.47 70.5691 197.22 70.5791C197.47 70.5791 197.72 70.5591 197.97 70.5391Z" fill="#BBBBBB"/>
<path d="M182.14 64.4198C181.68 63.9098 181.26 63.3798 180.86 62.8398C181.25 63.3898 181.68 63.9098 182.14 64.4198Z" fill="#BBBBBB"/>
<path d="M209.89 39.0909C206.43 35.9809 201.86 35.2109 197.39 35.4509C192.79 35.7009 185.12 37.9409 179.7 41.7109C178.61 43.9109 177.91 46.2209 177.57 48.5509C180.39 44.7909 185.54 42.7309 190.06 42.4909C192.7 42.3509 196.2 43.3909 196.37 46.5109C196.72 52.9609 186.83 57.5509 181.46 57.8409C180.37 57.9009 179.28 57.8209 178.25 57.5809V57.6009C178.65 58.8309 179.16 60.0309 179.81 61.1609C179.86 61.2409 179.91 61.3209 179.96 61.4009C180.24 61.8909 180.54 62.3709 180.88 62.8309C181.27 63.3709 181.7 63.9009 182.16 64.4109C183.09 65.4409 184.12 66.3409 185.21 67.1109C194.29 59.1609 200.58 45.7509 209.9 39.0809L209.89 39.0909Z" fill="#BBBBBB"/>
<path d="M179.95 61.4099C179.9 61.3299 179.84 61.2499 179.8 61.1699C179.85 61.2499 179.9 61.3299 179.95 61.4099Z" fill="#BBBBBB"/>
<path d="M178.02 56.7209C178.93 56.9309 179.89 57.0009 180.86 56.9409C185.59 56.6909 196.09 52.1309 195.77 46.3709C195.63 43.6809 192.4 42.9309 190.19 43.0609C185.35 43.3209 180.69 46.0009 177.44 49.5209C177.2 51.9509 177.4 54.3709 178.01 56.6909C178.01 56.6909 178.01 56.6909 178.02 56.6909V56.7109V56.7209Z" fill="#BBBBBB"/>
<path d="M178.01 56.6992C178.01 56.6992 178.01 56.6992 178 56.6992C178 56.6992 178 56.7092 178 56.7192C178 56.7192 178 56.7192 178.01 56.7192V56.6992Z" fill="#BBBBBB"/>
<path d="M185.2 34.4503C184.69 34.9103 184.22 35.3803 183.77 35.8703C183.61 36.0403 183.46 36.2103 183.31 36.3803C183.02 36.7003 182.75 37.0403 182.48 37.3703C182.32 37.5803 182.15 37.7803 181.99 37.9903C181.64 38.4603 181.31 38.9303 181 39.4103C185.84 36.5503 191.87 34.9803 196.22 34.7503C201.28 34.4703 206.5 35.2603 210.47 38.7703C212.29 37.6003 214.25 36.8903 216.45 36.6703L216.48 37.1403C214.44 37.3603 212.59 38.0603 210.87 39.1803C212.31 40.7803 213.49 42.7603 213.61 44.9603C213.87 49.8003 209.81 52.5003 205.68 53.8603C207.74 55.0503 208.98 57.0803 209.11 59.4503C209.31 63.1603 206.6 67.0203 203.15 69.5703C203.19 69.5603 203.22 69.5503 203.26 69.5303C203.95 69.3203 204.63 69.0703 205.3 68.7903C205.58 68.6703 205.85 68.5503 206.13 68.4303C206.48 68.2703 206.83 68.1003 207.18 67.9203C207.56 67.7203 207.93 67.5203 208.31 67.3003C208.5 67.1903 208.68 67.0803 208.86 66.9703C209.37 66.6503 209.87 66.3103 210.36 65.9503C210.48 65.8603 210.6 65.7703 210.72 65.6803C211.25 65.2703 211.78 64.8503 212.28 64.3903C221.45 56.1103 222.81 42.7003 215.35 34.4303C207.87 26.1503 194.39 26.1603 185.23 34.4503H185.2Z" fill="#BBBBBB"/>
<path d="M183.77 35.8692C184.23 35.3792 184.7 34.9092 185.2 34.4492C184.69 34.9092 184.22 35.3792 183.77 35.8692Z" fill="#BBBBBB"/>
<path d="M208.29 67.3105C207.92 67.5305 207.54 67.7405 207.16 67.9305C207.54 67.7305 207.91 67.5205 208.29 67.3105Z" fill="#BBBBBB"/>
<path d="M212.26 64.4004C211.75 64.8604 211.23 65.2804 210.7 65.6904C211.23 65.2804 211.76 64.8604 212.26 64.4004Z" fill="#BBBBBB"/>
<path d="M206.11 68.4492C205.84 68.5792 205.56 68.6992 205.28 68.8092C205.56 68.6892 205.83 68.5692 206.11 68.4492Z" fill="#BBBBBB"/>
<path d="M180.99 39.42C181.3 38.94 181.63 38.46 181.98 38C181.63 38.47 181.3 38.94 180.99 39.42Z" fill="#BBBBBB"/>
<path d="M182.47 37.3806C182.74 37.0406 183.01 36.7106 183.3 36.3906C183.01 36.7106 182.73 37.0406 182.47 37.3806Z" fill="#BBBBBB"/>
<path d="M203.14 69.5908C203.14 69.5908 203.21 69.5708 203.25 69.5508C203.21 69.5608 203.18 69.5708 203.14 69.5908Z" fill="#BBBBBB"/>
<path d="M14.7 40.8197C14.33 38.1297 12.01 37.0297 9.5 37.0297C3.85 37.0297 2.14 42.1597 2.14 46.6797C2.14 51.1997 3.85 56.3297 9.5 56.3297C11.94 56.3297 14.39 55.1097 14.94 52.3597H17.08C16.44 56.0597 13.05 58.1597 9.5 58.1597C2.81 58.1597 0 52.7797 0 46.6697C0 40.5597 2.84 35.1797 9.5 35.1797C13.1 35.1797 16.53 36.8297 16.83 40.7997H14.69L14.7 40.8197Z" fill="#636569"/>
<path d="M20.3399 57.7106H18.5099V45.8306C18.5399 44.6406 18.4099 43.4106 18.3599 42.3806H20.2599L20.3499 44.6406H20.4099C20.9599 43.0806 22.3299 41.9806 23.8599 41.9206C24.4699 41.8906 25.0799 41.9206 25.6999 41.9506V43.7206C25.3299 43.6906 24.9299 43.6006 24.5699 43.6006C21.8499 43.6006 20.4199 45.5606 20.3499 48.4906V57.7106H20.3399Z" fill="#636569"/>
<path d="M27.2998 50.4699C27.3598 53.7399 28.8598 56.4899 32.6098 56.4899C34.7798 56.4899 36.5798 54.9299 37.0398 52.8199H38.9698C38.0198 56.4899 35.7298 58.1699 32.0398 58.1699C27.4598 58.1699 25.3198 54.2299 25.3198 50.0399C25.3198 45.8499 27.6098 41.9199 32.1598 41.9199C37.2898 41.9199 39.1598 45.6799 39.1598 50.4699H27.3098H27.2998ZM37.1698 48.7899C36.9498 45.8299 35.3698 43.5899 32.1898 43.5899C29.1898 43.5899 27.6098 46.0999 27.3598 48.7899H37.1698Z" fill="#636569"/>
<path d="M50.0498 46.8999C49.8698 44.3999 48.5798 43.5999 46.4098 43.5999C44.4898 43.5999 42.8998 44.1799 42.6498 46.2599H40.6998C41.1598 43.1099 43.5098 41.9199 46.4398 41.9199C49.8298 41.9199 51.9398 43.4799 51.8798 46.9899V54.2699C51.8498 55.4599 51.9698 56.6799 52.0298 57.7199H50.1398L50.0798 55.4599H50.0198L49.9298 55.6699C49.2598 56.9499 47.2098 58.1799 45.1298 58.1799C42.2798 58.1799 40.0298 56.4399 40.0298 53.4499C40.0298 51.3699 41.2798 49.7799 43.1198 49.0199C45.1698 48.1299 47.8198 48.4399 50.0498 48.3199V46.9099V46.8999ZM45.4698 56.4899C49.4698 56.4899 50.2398 53.1899 50.0498 49.9799C47.4498 50.0699 42.0098 49.5799 42.0098 53.4299C42.0098 55.5099 43.5998 56.4799 45.4598 56.4799L45.4698 56.4899Z" fill="#636569"/>
<path d="M55.5102 44.0605H52.4502V42.3805H55.5102V39.1105L57.3402 38.3105V42.3805H60.8202V44.0605H57.3402V54.3205C57.3102 55.7205 58.0402 56.4905 59.4502 56.4905C60.0002 56.4905 60.5502 56.4605 61.0402 56.3105V57.8905C60.4602 58.0405 59.7902 58.1705 59.1802 58.1705C55.3002 58.1705 55.5102 55.7005 55.5102 53.6205V44.0605Z" fill="#636569"/>
<path d="M65.16 37.9502H63.02V35.6602H65.16V37.9502ZM65 42.3802V57.7102H63.17V42.3802H65Z" fill="#636569"/>
<path d="M68.7002 42.3789L73.9902 55.1789L79.0902 42.3789H81.1002L75.0202 57.7089H72.9402L66.6802 42.3789H68.7002Z" fill="#636569"/>
<path d="M82.6001 50.4699C82.6601 53.7399 84.1601 56.4899 87.9101 56.4899C90.0801 56.4899 91.8801 54.9299 92.3401 52.8199H94.2701C93.3301 56.4899 91.0301 58.1699 87.3401 58.1699C82.7601 58.1699 80.6201 54.2299 80.6201 50.0399C80.6201 45.8499 82.9101 41.9199 87.4601 41.9199C92.5901 41.9199 94.4601 45.6799 94.4601 50.4699H82.6101H82.6001ZM92.4701 48.7899C92.2601 45.8299 90.6701 43.5899 87.4901 43.5899C84.4901 43.5899 82.9101 46.0999 82.6601 48.7899H92.4701Z" fill="#636569"/>
<path d="M96.9099 35.6699H105.16C106.44 35.6699 108.92 35.6699 110.6 36.7099C112.61 37.9899 113.07 40.1299 113.07 41.4199C113.07 42.2399 112.92 43.6799 111.79 44.7199C111.63 44.8999 110.57 45.8799 109.28 46.2199V46.2799C112.64 46.8899 113.95 49.3299 113.95 51.6599C113.95 54.2599 112.42 55.9999 110.71 56.8499C109 57.7299 106 57.7299 105.15 57.7299H96.8999V35.6799L96.9099 35.6699ZM101.43 44.6499H104.73C106.07 44.6499 108.52 44.6499 108.52 41.8099C108.52 38.9699 106.19 39.0599 104.64 39.0599H101.43V44.6499ZM101.43 54.1799H104.64C106.81 54.1799 109.25 54.1799 109.25 51.2099C109.25 48.0599 106.41 48.0599 104.15 48.0599H101.43V54.1799Z" fill="#636569"/>
<path d="M125.22 57.7294C125.07 56.7794 125.07 56.0794 125.07 55.6294C123.36 58.0994 121.31 58.0994 120.45 58.0994C118.22 58.0994 117.21 57.4594 116.6 56.8794C115.68 55.9694 115.26 54.7094 115.26 53.4894C115.26 52.2694 115.68 50.0094 118.53 48.6994C120.42 47.8394 123.14 47.8394 124.64 47.8394C124.64 46.8294 124.61 46.3394 124.43 45.7994C124.03 44.6694 122.84 44.5094 122.41 44.5094C121.76 44.5094 121.09 44.7894 120.7 45.3694C120.36 45.8894 120.36 46.3794 120.36 46.7494H115.93C115.96 45.9294 116.05 44.2794 117.67 43.1094C119.07 42.0994 120.88 41.8594 122.34 41.8594C123.62 41.8594 126.31 42.0694 127.84 43.8494C128.88 45.0994 128.91 46.9294 128.91 47.6394L128.94 53.8394C128.94 55.1494 129.03 56.4694 129.31 57.7494H125.22V57.7294ZM119.66 52.9594C119.66 53.9994 120.36 55.1594 121.86 55.1594C122.68 55.1594 123.36 54.7594 123.78 54.2794C124.57 53.2994 124.64 52.1094 124.64 50.4594C121.74 50.2194 119.66 51.1294 119.66 52.9594Z" fill="#636569"/>
<path d="M131.17 45.0491C131.17 44.9891 131.17 43.3091 131.08 42.2391H135.42L135.54 44.5591C135.97 43.8591 137.19 41.8691 140.55 41.8691C143.58 41.8691 144.86 43.6991 145.26 44.7691C145.6 45.7191 145.69 46.5091 145.69 49.3791V57.7191H141.07V48.1291C141.07 47.4891 141.07 46.9391 140.82 46.4491C140.49 45.7791 139.78 45.1291 138.62 45.1291C137.64 45.1291 136.76 45.5891 136.27 46.3191C136 46.7191 135.72 47.4791 135.72 48.6791V57.7191H131.17V45.0391V45.0491Z" fill="#636569"/>
<path d="M147.99 35.6389H152.48V48.6489L157.15 42.1989H162.25L156.96 48.9189L162.58 57.7089H157.24L152.47 49.3089V57.7089H147.98V35.6289L147.99 35.6389Z" fill="#636569"/>
</g>
<defs>
<clipPath id="clip0_32_528">
<rect width="222.82" height="70.59" fill="white"/>
</clipPath>
</defs>
</svg>
